<?xml version="1.0" encoding="UTF-8" standalone="no"?>
<!DOCTYPE svg PUBLIC "-//W3C//DTD SVG 1.1//EN"
 "http://www.w3.org/Graphics/SVG/1.1/DTD/svg11.dtd">
<!-- Generated by graphviz version 2.47.0 (20210316.0004)
 -->
<!-- Title: dependencies Pages: 1 -->
<svg width="504pt" height="284pt"
 viewBox="0.00 0.00 504.00 284.00" xmlns="http://www.w3.org/2000/svg" xmlns:xlink="http://www.w3.org/1999/xlink">
<g id="graph0" class="graph" transform="scale(1 1) rotate(0) translate(4 280)">
<title>dependencies</title>
<polygon fill="white" stroke="transparent" points="-4,4 -4,-280 500,-280 500,4 -4,4"/>
<text text-anchor="start" x="227.01" y="-42.4" font-family="Times-12" font-weight="bold" font-size="14.00">Legend</text>
<polygon fill="#ffffb3" stroke="transparent" points="14,-10 14,-30 34,-30 34,-10 14,-10"/>
<text text-anchor="start" x="37.63" y="-15.4" font-family="Times-12" font-size="14.00"> &#160;Declarations</text>
<polygon fill="#8dd3c7" stroke="transparent" points="127,-10 127,-30 147,-30 147,-10 127,-10"/>
<text text-anchor="start" x="150.73" y="-15.4" font-family="Times-12" font-size="14.00"> &#160;Module</text>
<polygon fill="#80b1d3" stroke="transparent" points="213,-10 213,-30 233,-30 233,-10 213,-10"/>
<text text-anchor="start" x="236.78" y="-15.4" font-family="Times-12" font-size="14.00"> &#160;Bootstrap</text>
<polygon fill="#fdb462" stroke="transparent" points="310,-10 310,-30 330,-30 330,-10 310,-10"/>
<text text-anchor="start" x="333.67" y="-15.4" font-family="Times-12" font-size="14.00"> &#160;Providers</text>
<polygon fill="#fb8072" stroke="transparent" points="406,-10 406,-30 426,-30 426,-10 406,-10"/>
<text text-anchor="start" x="429.73" y="-15.4" font-family="Times-12" font-size="14.00"> &#160;Exports</text>
<g id="clust1" class="cluster">
<title>cluster_LibraryModule</title>
<polygon fill="none" stroke="black" stroke-dasharray="1,5" points="90,-70 90,-268 406,-268 406,-70 90,-70"/>
</g>
<g id="clust3" class="cluster">
<title>cluster_LibraryModule_imports</title>
<polygon fill="none" stroke="black" points="260,-78 260,-130 398,-130 398,-78 260,-78"/>
</g>
<g id="clust4" class="cluster">
<title>cluster_LibraryModule_exports</title>
<polygon fill="none" stroke="black" points="192,-208 192,-260 312,-260 312,-208 192,-208"/>
</g>
<g id="clust6" class="cluster">
<title>cluster_LibraryModule_providers</title>
<polygon fill="none" stroke="black" points="98,-78 98,-130 252,-130 252,-78 98,-78"/>
</g>
<!-- FileLoggerModule -->
<g id="node1" class="node">
<title>FileLoggerModule</title>
<polygon fill="#8dd3c7" stroke="black" points="389.76,-122 386.76,-126 365.76,-126 362.76,-122 268.24,-122 268.24,-86 389.76,-86 389.76,-122"/>
<text text-anchor="middle" x="329" y="-99.8" font-family="Times,serif" font-size="14.00">FileLoggerModule</text>
</g>
<!-- LibraryModule -->
<g id="node2" class="node">
<title>LibraryModule</title>
<polygon fill="#8dd3c7" stroke="black" points="302.53,-187 299.53,-191 278.53,-191 275.53,-187 201.47,-187 201.47,-151 302.53,-151 302.53,-187"/>
<text text-anchor="middle" x="252" y="-164.8" font-family="Times,serif" font-size="14.00">LibraryModule</text>
</g>
<!-- FileLoggerModule&#45;&gt;LibraryModule -->
<g id="edge1" class="edge">
<title>FileLoggerModule&#45;&gt;LibraryModule</title>
<path fill="none" stroke="black" d="M285.44,-122.11C285.44,-122.11 285.44,-140.99 285.44,-140.99"/>
<polygon fill="black" stroke="black" points="281.94,-140.99 285.44,-150.99 288.94,-140.99 281.94,-140.99"/>
</g>
<!-- LibraryService  -->
<g id="node3" class="node">
<title>LibraryService </title>
<polygon fill="#fb8072" stroke="black" points="303.96,-252 200.04,-252 200.04,-216 303.96,-216 303.96,-252"/>
<text text-anchor="middle" x="252" y="-229.8" font-family="Times,serif" font-size="14.00">LibraryService </text>
</g>
<!-- LibraryModule&#45;&gt;LibraryService  -->
<g id="edge2" class="edge">
<title>LibraryModule&#45;&gt;LibraryService </title>
<path fill="none" stroke="black" stroke-dasharray="5,2" d="M252,-187.11C252,-187.11 252,-205.99 252,-205.99"/>
<polygon fill="black" stroke="black" points="248.5,-205.99 252,-215.99 255.5,-205.99 248.5,-205.99"/>
</g>
<!-- LibraryService -->
<g id="node4" class="node">
<title>LibraryService</title>
<ellipse fill="#fdb462" stroke="black" cx="175" cy="-104" rx="68.9" ry="18"/>
<text text-anchor="middle" x="175" y="-99.8" font-family="Times,serif" font-size="14.00">LibraryService</text>
</g>
<!-- LibraryService&#45;&gt;LibraryModule -->
<g id="edge3" class="edge">
<title>LibraryService&#45;&gt;LibraryModule</title>
<path fill="none" stroke="black" d="M222.59,-117.15C222.59,-117.15 222.59,-140.69 222.59,-140.69"/>
<polygon fill="black" stroke="black" points="219.09,-140.69 222.59,-150.69 226.09,-140.69 219.09,-140.69"/>
</g>
</g>
</svg>
