<?xml version="1.0" encoding="UTF-8" standalone="no"?>
<!DOCTYPE svg PUBLIC "-//W3C//DTD SVG 1.1//EN"
 "http://www.w3.org/Graphics/SVG/1.1/DTD/svg11.dtd">
<!-- Generated by graphviz version 2.47.0 (20210316.0004)
 -->
<!-- Title: dependencies Pages: 1 -->
<svg width="504pt" height="211pt"
 viewBox="0.00 0.00 504.00 211.00" xmlns="http://www.w3.org/2000/svg" xmlns:xlink="http://www.w3.org/1999/xlink">
<g id="graph0" class="graph" transform="scale(1 1) rotate(0) translate(4 207)">
<title>dependencies</title>
<polygon fill="white" stroke="transparent" points="-4,4 -4,-207 500,-207 500,4 -4,4"/>
<text text-anchor="start" x="227.01" y="-42.4" font-family="Times-12" font-weight="bold" font-size="14.00">Legend</text>
<polygon fill="#ffffb3" stroke="transparent" points="14,-10 14,-30 34,-30 34,-10 14,-10"/>
<text text-anchor="start" x="37.63" y="-15.4" font-family="Times-12" font-size="14.00"> &#160;Declarations</text>
<polygon fill="#8dd3c7" stroke="transparent" points="127,-10 127,-30 147,-30 147,-10 127,-10"/>
<text text-anchor="start" x="150.73" y="-15.4" font-family="Times-12" font-size="14.00"> &#160;Module</text>
<polygon fill="#80b1d3" stroke="transparent" points="213,-10 213,-30 233,-30 233,-10 213,-10"/>
<text text-anchor="start" x="236.78" y="-15.4" font-family="Times-12" font-size="14.00"> &#160;Bootstrap</text>
<polygon fill="#fdb462" stroke="transparent" points="310,-10 310,-30 330,-30 330,-10 310,-10"/>
<text text-anchor="start" x="333.67" y="-15.4" font-family="Times-12" font-size="14.00"> &#160;Providers</text>
<polygon fill="#fb8072" stroke="transparent" points="406,-10 406,-30 426,-30 426,-10 406,-10"/>
<text text-anchor="start" x="429.73" y="-15.4" font-family="Times-12" font-size="14.00"> &#160;Exports</text>
<g id="clust1" class="cluster">
<title>cluster_AppModule</title>
<polygon fill="none" stroke="black" stroke-dasharray="1,5" points="42,-70 42,-195 454,-195 454,-70 42,-70"/>
</g>
<g id="clust3" class="cluster">
<title>cluster_AppModule_imports</title>
<polygon fill="none" stroke="black" points="188,-78 188,-130 446,-130 446,-78 188,-78"/>
</g>
<g id="clust6" class="cluster">
<title>cluster_AppModule_providers</title>
<polygon fill="none" stroke="black" points="50,-78 50,-130 180,-130 180,-78 50,-78"/>
</g>
<!-- FileLoggerModule -->
<g id="node1" class="node">
<title>FileLoggerModule</title>
<polygon fill="#8dd3c7" stroke="black" points="437.76,-122 434.76,-126 413.76,-126 410.76,-122 316.24,-122 316.24,-86 437.76,-86 437.76,-122"/>
<text text-anchor="middle" x="377" y="-99.8" font-family="Times,serif" font-size="14.00">FileLoggerModule</text>
</g>
<!-- AppModule -->
<g id="node3" class="node">
<title>AppModule</title>
<polygon fill="#8dd3c7" stroke="black" points="288.66,-187 285.66,-191 264.66,-191 261.66,-187 205.34,-187 205.34,-151 288.66,-151 288.66,-187"/>
<text text-anchor="middle" x="247" y="-164.8" font-family="Times,serif" font-size="14.00">AppModule</text>
</g>
<!-- FileLoggerModule&#45;&gt;AppModule -->
<g id="edge1" class="edge">
<title>FileLoggerModule&#45;&gt;AppModule</title>
<path fill="none" stroke="black" d="M377,-122.11C377,-141.34 377,-169 377,-169 377,-169 298.85,-169 298.85,-169"/>
<polygon fill="black" stroke="black" points="298.85,-165.5 288.85,-169 298.85,-172.5 298.85,-165.5"/>
</g>
<!-- LibraryModule -->
<g id="node2" class="node">
<title>LibraryModule</title>
<polygon fill="#8dd3c7" stroke="black" points="297.53,-122 294.53,-126 273.53,-126 270.53,-122 196.47,-122 196.47,-86 297.53,-86 297.53,-122"/>
<text text-anchor="middle" x="247" y="-99.8" font-family="Times,serif" font-size="14.00">LibraryModule</text>
</g>
<!-- LibraryModule&#45;&gt;AppModule -->
<g id="edge2" class="edge">
<title>LibraryModule&#45;&gt;AppModule</title>
<path fill="none" stroke="black" d="M247,-122.11C247,-122.11 247,-140.99 247,-140.99"/>
<polygon fill="black" stroke="black" points="243.5,-140.99 247,-150.99 250.5,-140.99 243.5,-140.99"/>
</g>
<!-- AppService -->
<g id="node4" class="node">
<title>AppService</title>
<ellipse fill="#fdb462" stroke="black" cx="115" cy="-104" rx="56.74" ry="18"/>
<text text-anchor="middle" x="115" y="-99.8" font-family="Times,serif" font-size="14.00">AppService</text>
</g>
<!-- AppService&#45;&gt;AppModule -->
<g id="edge3" class="edge">
<title>AppService&#45;&gt;AppModule</title>
<path fill="none" stroke="black" d="M115,-122.11C115,-141.34 115,-169 115,-169 115,-169 195.23,-169 195.23,-169"/>
<polygon fill="black" stroke="black" points="195.23,-172.5 205.23,-169 195.23,-165.5 195.23,-172.5"/>
</g>
</g>
</svg>
